<svg xmlns="http://www.w3.org/2000/svg" version="1.0" width="603.000000pt" height="270.000000pt" viewBox="0 0 603.000000 270.000000" preserveAspectRatio="xMidYMid meet">

<g transform="translate(0.000000,270.000000) scale(0.100000,-0.100000)" fill="#2a357f" stroke="none">
<path d="M912 2079 c-57 -11 -145 -51 -190 -88 -37 -29 -82 -103 -251 -417 -83 -154 -181 -357 -181 -374 0 -13 52 -13 124 1 74 13 136 52 191 119 51 63 207 323 258 433 63 134 161 218 306 261 43 13 101 16 272 16 224 0 227 1 242 43 6 16 -15 17 -361 16 -202 -1 -386 -5 -410 -10z" fill="#2a357f"/>
<path d="M1420 1990 c-101 -11 -146 -27 -202 -73 -67 -55 -95 -96 -212 -317 -213 -403 -277 -450 -607 -450 -116 0 -138 -2 -143 -16 -3 -9 -6 -18 -6 -20 0 -2 151 -4 336 -4 347 0 408 6 486 46 l27 14 -24 37 c-28 40 -55 122 -55 163 0 47 29 124 61 163 70 84 174 123 309 114 l85 -5 87 173 87 173 -31 6 c-36 7 -109 6 -198 -4z" fill="#2a357f"/>
<path d="M3106 1793 c-3 -10 -15 -67 -27 -128 -25 -132 -32 -147 -48 -116 -21 39 -70 61 -137 61 -53 0 -69 -5 -110 -32 -61 -41 -90 -84 -105 -156 -15 -74 -6 -151 23 -196 56 -87 187 -93 277 -12 l24 21 -6 -32 -6 -33 64 0 c52 0 65 3 69 18 8 26 103 469 115 536 17 90 20 86 -58 86 -58 0 -71 -3 -75 -17z m-108 -319 c42 -48 25 -135 -38 -188 -38 -31 -68 -33 -103 -6 -32 25 -41 66 -28 118 28 102 111 140 169 76z" fill="#2a357f"/>
<path d="M3912 1623 c-38 -174 -92 -435 -92 -448 0 -3 33 -5 73 -5 l73 0 28 138 c32 163 95 460 102 485 5 15 -3 17 -69 17 l-74 0 -41 -187z" fill="#2a357f"/>
<path d="M4252 1773 c-5 -21 -36 -164 -69 -318 l-59 -280 69 -3 c38 -2 71 -1 74 1 6 7 133 590 133 615 0 21 -4 22 -70 22 l-69 0 -9 -37z" fill="#2a357f"/>
<path d="M5521 1740 c-6 -28 -11 -53 -11 -55 0 -8 139 -5 143 3 3 4 8 28 12 55 l7 47 -70 0 -70 0 -11 -50z" fill="#2a357f"/>
<path d="M1279 1609 c-117 -18 -202 -103 -216 -217 -12 -103 46 -197 137 -222 49 -13 177 -7 193 9 5 5 12 29 14 54 l5 44 -54 -5 c-91 -7 -138 28 -138 105 0 101 108 161 212 118 13 -5 20 0 28 19 25 66 24 73 -12 84 -48 15 -116 19 -169 11z" fill="#2a357f"/>
<path d="M1678 1608 c-49 -10 -58 -23 -58 -81 0 -25 2 -27 22 -16 11 6 52 12 90 13 62 1 72 -2 89 -23 10 -13 19 -32 19 -42 0 -17 -8 -19 -79 -19 -91 0 -166 -21 -212 -59 -27 -23 -33 -35 -37 -83 -7 -91 39 -138 138 -138 49 0 120 27 135 50 12 19 22 10 17 -15 -4 -24 -3 -25 55 -25 l60 0 26 128 c15 70 27 150 27 179 0 47 -4 56 -36 87 -53 52 -144 67 -256 44z m142 -248 c0 -19 -27 -64 -52 -86 -53 -49 -122 -31 -116 29 2 25 11 36 38 49 38 20 130 24 130 8z" fill="#2a357f"/>
<path d="M3495 1613 c-58 -13 -91 -29 -127 -61 -51 -46 -79 -102 -85 -172 -16 -172 110 -254 330 -217 l47 8 0 51 c0 44 -2 49 -17 42 -10 -4 -53 -9 -95 -12 -72 -4 -78 -2 -102 22 -14 14 -26 37 -26 51 l0 25 160 0 160 0 0 65 c0 75 -16 119 -56 157 -40 37 -125 56 -189 41z m102 -105 c14 -13 23 -33 23 -51 l0 -30 -82 7 c-46 4 -87 11 -92 16 -5 5 6 24 27 45 42 42 88 47 124 13z" fill="#2a357f"/>
<path d="M4612 1610 c-59 -12 -62 -16 -62 -62 0 -37 2 -40 23 -35 105 27 169 15 186 -34 13 -37 13 -36 -100 -41 -156 -7 -239 -70 -226 -171 8 -61 51 -99 120 -105 66 -5 116 10 151 45 l26 26 0 -32 0 -32 57 3 57 3 27 130 c36 168 37 204 3 245 -15 17 -39 37 -54 45 -36 19 -152 27 -208 15z m128 -259 c0 -57 -95 -125 -141 -101 -31 17 -35 57 -9 85 24 26 42 32 108 34 35 1 42 -2 42 -18z" fill="#2a357f"/>
<path d="M2092 1398 c-23 -117 -42 -217 -42 -221 0 -4 33 -7 72 -5 l73 3 23 105 c31 140 52 186 95 206 43 21 79 13 97 -21 11 -21 10 -41 -14 -152 -14 -71 -26 -132 -26 -136 0 -4 33 -7 72 -5 l73 3 22 100 c36 161 38 205 15 258 -24 54 -61 77 -127 77 -53 0 -97 -18 -139 -57 l-29 -27 5 42 6 42 -67 0 -66 0 -43 -212z" fill="#2a357f"/>
<path d="M5254 1591 c-18 -11 -39 -30 -48 -42 -17 -25 -19 -21 -16 24 1 27 1 27 -64 27 l-65 0 -15 -72 c-22 -106 -66 -337 -66 -348 0 -6 31 -10 73 -10 l73 0 23 113 c26 123 50 180 82 198 12 6 45 11 74 10 l53 0 11 44 c18 72 17 75 -36 75 -30 0 -60 -7 -79 -19z" fill="#2a357f"/>
<path d="M5486 1583 c-6 -21 -86 -400 -86 -408 0 -3 33 -5 73 -5 l72 0 39 193 c22 105 41 202 44 215 4 21 2 22 -66 22 -59 0 -72 -3 -76 -17z" fill="#2a357f"/>
<path d="M932 824 c-14 -10 -22 -25 -22 -45 0 -25 7 -33 45 -51 54 -26 57 -51 7 -56 -22 -2 -34 2 -38 12 -10 25 -36 20 -32 -6 4 -26 52 -44 92 -34 31 8 60 48 52 74 -3 10 -27 28 -52 40 -49 24 -54 45 -11 50 18 2 29 -2 33 -12 8 -20 44 -21 44 -2 0 20 -39 46 -70 46 -14 0 -36 -7 -48 -16z" fill="#2a357f"/>
<path d="M1083 740 l-20 -100 78 0 c72 0 79 2 79 20 0 18 -7 20 -55 20 -55 0 -61 4 -49 34 5 12 20 16 60 16 47 0 54 2 54 20 0 17 -7 20 -50 20 -37 0 -50 4 -50 15 0 10 15 15 57 17 46 2 59 7 61 21 3 15 -5 17 -71 17 l-74 0 -20 -100z" fill="#2a357f"/>
<path d="M1322 827 c-36 -21 -55 -57 -56 -104 -1 -36 4 -49 23 -64 43 -35 134 -17 146 29 3 15 8 35 11 45 5 14 -1 17 -39 17 -32 0 -47 -5 -51 -16 -9 -23 -8 -24 20 -24 37 0 25 -24 -15 -28 -60 -6 -80 41 -40 92 23 29 69 35 89 11 15 -18 40 -20 40 -2 0 43 -81 71 -128 44z" fill="#2a357f"/>
<path d="M1487 752 c-21 -108 -21 -112 -2 -112 13 0 35 55 35 92 0 39 20 24 42 -32 18 -48 27 -60 43 -58 16 3 22 19 38 96 10 52 16 96 13 99 -10 11 -36 -7 -36 -24 0 -10 -5 -36 -11 -58 l-12 -40 -28 63 c-20 44 -34 62 -47 62 -15 0 -21 -15 -35 -88z" fill="#2a357f"/>
<path d="M1707 743 c-46 -80 -53 -99 -39 -102 9 -2 23 6 30 18 20 30 102 31 102 1 0 -14 7 -20 21 -20 17 0 20 5 15 28 -7 33 -26 154 -26 165 0 4 -11 7 -24 7 -20 0 -33 -17 -79 -97z m82 -5 c1 -13 -7 -18 -24 -18 -30 0 -30 2 -8 43 15 29 17 30 24 12 4 -11 8 -28 8 -37z" fill="#2a357f"/>
<path d="M1906 823 c-7 -24 -36 -162 -36 -174 0 -5 31 -9 69 -9 65 0 81 7 81 36 0 2 -22 4 -50 4 -57 0 -57 -1 -36 98 13 58 12 62 -5 62 -10 0 -20 -8 -23 -17z" fill="#2a357f"/>
<path d="M2082 746 c-29 -51 -52 -96 -52 -100 0 -16 39 -4 45 14 5 16 15 20 50 20 34 0 44 -4 48 -20 6 -22 37 -28 37 -7 0 6 -7 50 -15 97 -8 47 -15 86 -15 88 0 1 -10 2 -23 2 -19 0 -33 -17 -75 -94z m78 3 c0 -25 -4 -29 -26 -29 -14 0 -24 3 -22 8 34 69 48 75 48 21z" fill="#2a357f"/>
<path d="M2275 818 c-19 -84 -35 -172 -31 -176 3 -2 12 -2 20 1 9 4 17 28 21 72 9 80 25 68 25 -18 0 -54 2 -58 22 -55 16 2 29 20 52 75 16 40 31 71 33 69 3 -3 -4 -45 -22 -123 -4 -18 -1 -23 13 -23 16 0 21 13 31 78 7 42 15 87 18 100 4 19 1 22 -25 22 -26 0 -32 -6 -58 -62 l-29 -63 -3 63 c-3 61 -3 62 -32 62 -22 0 -31 -5 -35 -22z" fill="#2a357f"/>
<path d="M2510 836 c0 -5 -27 -139 -35 -173 -5 -22 -3 -23 75 -23 73 0 80 2 80 20 0 18 -7 20 -56 20 -52 0 -55 1 -52 23 3 19 10 23 58 27 42 4 56 9 58 23 3 14 -4 17 -47 17 -39 0 -51 4 -51 15 0 11 13 15 54 15 50 0 66 9 66 36 0 2 -34 4 -75 4 -41 0 -75 -2 -75 -4z" fill="#2a357f"/>
<path d="M2677 752 c-21 -108 -21 -112 -2 -112 13 0 35 55 35 92 0 39 20 24 42 -32 18 -48 27 -60 43 -58 16 3 22 19 38 96 10 52 16 96 13 99 -10 11 -36 -7 -36 -24 0 -10 -5 -36 -11 -58 l-12 -40 -28 63 c-20 44 -34 62 -47 62 -15 0 -21 -15 -35 -88z" fill="#2a357f"/>
<path d="M2880 820 c0 -15 7 -20 25 -20 29 0 30 -5 10 -85 -18 -77 -18 -75 4 -75 16 0 22 14 36 79 17 78 19 80 49 83 20 2 32 9 34 21 3 15 -6 17 -77 17 -74 0 -81 -2 -81 -20z" fill="#2a357f"/>
<path d="M3105 831 c-36 -15 -58 -49 -63 -99 -4 -44 -2 -51 23 -70 67 -53 165 5 165 98 0 60 -64 96 -125 71z m73 -43 c32 -32 -7 -108 -54 -108 -33 0 -55 36 -43 69 17 46 69 67 97 39z" fill="#2a357f"/>
<path d="M3356 823 c-7 -24 -36 -162 -36 -174 0 -5 9 -9 19 -9 15 0 21 10 26 40 l7 40 48 0 c44 0 60 10 60 36 0 2 -23 4 -51 4 -43 0 -50 3 -45 16 3 9 6 18 6 20 0 2 22 4 49 4 40 0 50 3 54 20 5 19 0 20 -63 20 -57 0 -70 -3 -74 -17z" fill="#2a357f"/>
<path d="M3526 823 c-7 -22 -36 -165 -36 -175 0 -5 33 -8 74 -8 70 0 86 7 86 36 0 2 -26 4 -59 4 -57 0 -58 1 -53 25 4 23 9 25 57 25 44 0 54 3 58 20 5 18 0 20 -49 20 -43 0 -52 3 -48 15 4 11 21 15 59 15 44 0 54 3 58 20 5 19 0 20 -68 20 -61 0 -75 -3 -79 -17z" fill="#2a357f"/>
<path d="M3696 744 c-10 -52 -16 -98 -13 -101 14 -13 35 8 41 42 6 30 11 36 29 33 13 -2 30 -18 42 -40 11 -22 28 -38 38 -38 21 0 21 2 -3 50 -16 31 -17 40 -7 40 20 0 47 33 47 58 0 37 -26 52 -94 52 l-62 0 -18 -96z m132 39 c-4 -23 -88 -32 -88 -10 0 22 10 27 52 27 32 0 39 -3 36 -17z" fill="#2a357f"/>
<path d="M3897 752 c-21 -110 -21 -112 2 -112 14 0 20 10 25 41 6 34 10 40 29 37 13 -2 30 -17 42 -40 11 -22 28 -38 38 -38 21 0 21 2 -3 50 -16 31 -17 40 -7 40 20 0 47 33 47 57 0 36 -31 53 -96 53 l-60 0 -17 -88z m131 31 c-4 -23 -88 -32 -88 -10 0 22 10 27 52 27 32 0 39 -3 36 -17z" fill="#2a357f"/>
<path d="M4155 831 c-36 -15 -58 -49 -63 -99 -4 -44 -2 -51 23 -70 67 -53 165 5 165 98 0 60 -64 96 -125 71z m73 -43 c32 -32 -7 -108 -54 -108 -33 0 -55 36 -43 69 17 46 69 67 97 39z" fill="#2a357f"/>
<path d="M4314 823 c3 -10 10 -47 16 -83 16 -91 19 -100 40 -100 19 0 30 16 95 133 34 62 35 67 17 67 -15 0 -31 -19 -58 -70 -39 -71 -54 -85 -54 -50 0 10 -5 42 -11 70 -8 40 -15 50 -31 50 -14 0 -18 -5 -14 -17z" fill="#2a357f"/>
<path d="M4515 828 c-5 -18 -35 -168 -35 -179 0 -5 8 -9 18 -9 15 0 21 16 35 88 9 49 17 94 17 100 0 16 -30 15 -35 0z" fill="#2a357f"/>
<path d="M4597 743 c-46 -80 -53 -99 -39 -102 9 -2 23 6 30 18 20 30 102 31 102 1 0 -14 7 -20 21 -20 17 0 20 5 15 28 -7 33 -26 154 -26 165 0 4 -11 7 -24 7 -20 0 -33 -17 -79 -97z m82 -5 c1 -13 -7 -18 -24 -18 -30 0 -30 2 -8 43 15 29 17 30 24 12 4 -11 8 -28 8 -37z" fill="#2a357f"/>
<path d="M4795 828 c-7 -20 -35 -158 -35 -174 0 -8 8 -14 19 -14 14 0 20 10 25 41 6 34 10 40 29 37 13 -2 30 -17 42 -40 11 -22 28 -38 38 -38 21 0 21 2 -3 50 -16 31 -17 40 -7 40 20 0 47 33 47 58 0 37 -26 52 -91 52 -39 0 -61 -4 -64 -12z m113 -45 c-4 -23 -88 -32 -88 -10 0 22 10 27 52 27 32 0 39 -3 36 -17z" fill="#2a357f"/>
<path d="M4973 739 l-20 -100 20 3 c18 3 24 16 39 88 22 108 22 110 -1 110 -15 0 -21 -16 -38 -101z" fill="#2a357f"/>
<path d="M5114 831 c-37 -16 -64 -60 -64 -105 0 -47 6 -58 37 -75 50 -26 111 -2 138 55 19 40 14 94 -9 113 -19 16 -77 23 -102 12z m74 -43 c30 -30 -8 -108 -53 -108 -34 0 -58 27 -50 59 11 49 73 79 103 49z" fill="#2a357f"/>
</g>
</svg>